<svg xmlns="http://www.w3.org/2000/svg" viewBox="0 0 160 160" shape-rendering="crispEdges">
  <rect width="160" height="160" rx="18" fill="#2b1a14"/>
  <rect x="12" y="12" width="136" height="136" rx="14" fill="#f5e3bf"/>
  <rect x="24" y="118" width="112" height="18" fill="#5f3b2f"/>
  <rect x="50" y="52" width="60" height="72" fill="#8a2b28"/>
  <rect x="42" y="70" width="76" height="22" fill="#b28a57"/>
  <rect x="54" y="34" width="52" height="38" fill="#c7c7c7"/>
  <rect x="46" y="44" width="68" height="14" fill="#6d7680"/>
  <rect x="62" y="58" width="36" height="8" fill="#232323"/>
  <rect x="66" y="66" width="8" height="8" fill="#f5e3bf"/>
  <rect x="86" y="66" width="8" height="8" fill="#f5e3bf"/>
  <rect x="44" y="30" width="72" height="10" fill="#a63a2d"/>
  <rect x="30" y="76" width="22" height="42" fill="#2e5f84"/>
  <rect x="108" y="76" width="22" height="42" fill="#2e5f84"/>
  <rect x="28" y="96" width="30" height="30" fill="#a63a2d"/>
  <rect x="34" y="102" width="18" height="18" fill="#d8b45e"/>
  <rect x="74" y="84" width="12" height="38" fill="#d8b45e"/>
</svg>
