<svg xmlns="http://www.w3.org/2000/svg" viewBox="0 0 160 160" shape-rendering="crispEdges">
  <rect width="160" height="160" rx="18" fill="#1d2418"/>
  <rect x="12" y="12" width="136" height="136" rx="14" fill="#f6e6c8"/>
  <rect x="32" y="118" width="96" height="18" fill="#5e3a24"/>
  <rect x="50" y="58" width="60" height="66" fill="#355b31"/>
  <rect x="42" y="48" width="76" height="30" fill="#54753a"/>
  <rect x="54" y="38" width="52" height="26" fill="#6a8c42"/>
  <rect x="56" y="64" width="48" height="38" fill="#efcfa4"/>
  <rect x="62" y="74" width="8" height="8" fill="#1d1b18"/>
  <rect x="90" y="74" width="8" height="8" fill="#1d1b18"/>
  <rect x="70" y="92" width="20" height="6" fill="#a55b48"/>
  <rect x="36" y="76" width="14" height="46" fill="#7b4c2c"/>
  <rect x="110" y="72" width="12" height="54" fill="#7b4c2c"/>
  <rect x="118" y="48" width="6" height="82" fill="#4a2e1b"/>
  <rect x="122" y="50" width="18" height="6" fill="#4a2e1b"/>
  <rect x="122" y="122" width="18" height="6" fill="#4a2e1b"/>
  <rect x="130" y="56" width="4" height="66" fill="#d8b45e"/>
  <rect x="36" y="56" width="12" height="12" fill="#c88f4b"/>
  <rect x="112" y="56" width="12" height="12" fill="#c88f4b"/>
</svg>
