<svg xmlns="http://www.w3.org/2000/svg" viewBox="0 0 160 160" shape-rendering="crispEdges">
  <rect width="160" height="160" rx="18" fill="#2d1712"/>
  <rect x="12" y="12" width="136" height="136" rx="14" fill="#f4e0bd"/>
  <rect x="34" y="118" width="92" height="18" fill="#6a2f28"/>
  <rect x="48" y="62" width="64" height="62" fill="#8d302b"/>
  <rect x="56" y="48" width="48" height="42" fill="#efc496"/>
  <rect x="48" y="34" width="64" height="28" fill="#7a2d22"/>
  <rect x="60" y="26" width="40" height="16" fill="#c05a2c"/>
  <rect x="64" y="64" width="8" height="8" fill="#211612"/>
  <rect x="88" y="64" width="8" height="8" fill="#211612"/>
  <rect x="68" y="84" width="24" height="8" fill="#753529"/>
  <rect x="32" y="74" width="18" height="50" fill="#5f2521"/>
  <rect x="110" y="72" width="16" height="52" fill="#5f2521"/>
  <rect x="120" y="42" width="10" height="82" fill="#5f3a24"/>
  <rect x="112" y="36" width="26" height="20" fill="#9c9c9c"/>
  <rect x="118" y="30" width="14" height="12" fill="#d6d6d6"/>
</svg>
